Coordinates
version=1
nRows=9
nColumns=36
inDegrees=yes

Units are S.I. units (second, meters, Newtons, ...)
If the header above contains a line with 'inDegrees', this indicates whether rotational values are in degrees (yes) or radians (no).

endheader
time	pelvis_tilt	pelvis_list	pelvis_rotation	pelvis_tx	pelvis_ty	pelvis_tz	hip_flexion_r	hip_adduction_r	hip_rotation_r	knee_angle_r	knee_angle_r_beta	ankle_angle_r	subtalar_angle_r	mtp_angle_r	hip_flexion_l	hip_adduction_l	hip_rotation_l	knee_angle_l	knee_angle_l_beta	ankle_angle_l	subtalar_angle_l	mtp_angle_l	lumbar_extension	lumbar_bending	lumbar_rotation	arm_flex_r	arm_add_r	arm_rot_r	elbow_flex_r	pro_sup_r	arm_flex_l	arm_add_l	arm_rot_l	elbow_flex_l	pro_sup_l
      0.00000000	     -3.80541742	     -8.76779056	     -7.92967388	      0.32052847	      0.94842082	     -0.12242104	     41.37892042	      8.38546344	      5.37402694	     11.49894126	      0.20069439	     -5.87925398	    -21.13587191	     -6.90262592	      4.06827850	     -2.34640931	      6.10271993	     10.25981984	      0.17906764	      8.96365688	     -9.65765588	     -6.90262592	     -2.86099167	      5.72335281	     -3.99550112	     38.23554660	      6.87012893	     62.62196948	    118.72824544	     75.97544865	     33.46665488	     -1.62064668	     69.91030002	    117.37605599	     74.89915636
      0.01666670	     -4.89240733	     -8.45765477	     -7.40340214	      0.32503444	      0.94077435	     -0.11967365	     42.07225745	      7.90621774	      5.21066397	      8.41287018	      0.14683228	      4.21922092	     -5.50427237	     -7.08762946	      5.34600191	     -2.38046300	      4.70933781	     12.25275656	      0.21385094	      8.88419662	     -8.69442311	     -7.08762946	     -1.65111022	      5.20760518	     -2.78672874	     40.86006049	      4.76345918	     71.58828392	    126.69255123	     92.79738497	     34.12962849	     -3.24700679	     65.64811758	    122.23326518	     92.83493423
      0.03333330	     -5.98429573	     -8.02962290	     -7.75917838	      0.32652441	      0.93351526	     -0.11741599	     42.79289337	      7.81515133	      5.23003635	      6.08769338	      0.10625029	      5.36701341	     -2.33528149	     -7.10393607	      6.99050905	     -2.27049775	      2.58273596	     13.88153346	      0.24227846	     11.89004276	     -6.64293421	     -7.10393607	      1.31375590	      5.18329547	     -3.55527836	     41.10899828	      7.09718120	     71.04441771	    125.86417903	     93.17900611	     33.34323558	     -4.13589551	     62.94904641	    122.98097283	     93.72884133
      0.05000000	     -5.25579436	     -8.33418729	     -7.31444815	      0.32577749	      0.93374844	     -0.11808987	     42.45488168	      7.74566192	      4.51888239	      7.11080233	      0.12410691	      7.07601266	     -0.44843289	     -7.26491463	      6.58721809	     -2.27130928	      2.79734740	     14.50060973	      0.25308338	     15.18305626	     -4.23958509	     -7.26491463	      1.32211988	      5.73441646	     -5.17229895	     42.10804872	      9.28589581	     71.30430203	    123.88813631	     94.83079178	     33.31804879	     -4.35106503	     60.70253121	    123.52802721	     97.26293309
      0.06666670	     -4.74638333	     -8.51465608	     -7.22612389	      0.32464405	      0.93488996	     -0.11823234	     42.79604757	      7.84860148	      4.08474792	      8.89701550	      0.15528221	      6.23737508	      0.04052363	     -7.29686703	      6.23014533	     -2.26931728	      2.95683694	     14.82641559	      0.25876977	     16.88919736	     -3.37756050	     -7.29686703	      1.07514073	      5.95929321	     -5.36333881	     42.30316085	     10.32709686	     71.56225908	    122.74694693	     92.99044519	     34.13141632	     -3.81540083	     61.41075908	    123.72773954	     95.17275189
      0.08333330	     -4.20721030	     -8.47512002	     -6.97767569	      0.32386332	      0.93627600	     -0.11827876	     43.39244624	      7.60182216	      3.37375588	     10.85156325	      0.18939551	      4.67225454	      0.32530761	     -7.31303360	      6.09318221	     -2.06861962	      2.96723683	     15.20696934	      0.26541168	     17.64929558	     -3.00067060	     -7.31303360	      0.72441896	      5.93797466	     -5.54160758	     42.57428780	     11.44798993	     72.09109360	    121.82778515	     92.16420804	     34.91310401	     -2.93411427	     62.88346471	    124.40709551	     93.95656055
      0.10000000	     -3.63067163	     -8.33921030	     -6.76797713	      0.32272102	      0.93776139	     -0.11832377	     43.86369199	      7.28108677	      2.97717390	     12.54824463	      0.21900818	      3.25887605	      0.27081510	     -7.33176156	      5.84987210	     -1.78801262	      3.19913197	     15.52552626	      0.27097155	     18.12622187	     -2.72507590	     -7.33176156	      0.04184364	      5.87086864	     -5.60733057	     42.64798071	     11.87532615	     72.50760328	    120.29038064	     91.33797928	     35.54231325	     -2.46573403	     64.38605504	    124.55531805	     92.47897395
      0.11666670	     -3.30872374	     -8.14495528	     -6.60962609	      0.32189746	      0.93863158	     -0.11809813	     44.51043507	      6.97442243	      2.82075710	     14.17616016	      0.24742067	      2.12529122	      0.12779048	     -7.34845394	      5.92462542	     -1.53803339	      3.28074415	     15.97050241	      0.27873785	     18.31238308	     -2.77121265	     -7.34845394	     -0.31949187	      5.69914875	     -5.47365429	     42.56240529	     11.86617582	     72.32929389	    119.40420975	     90.01081822	     35.89642450	     -2.49579212	     65.22330211	    124.84148545	     90.77353281
      0.13333330	     -2.74564098	     -7.99202220	     -6.36857961	      0.32084555	      0.93975761	     -0.11813631	     44.68932751	      6.66081395	      2.71435900	     15.32251251	      0.26742829	      1.09659742	     -0.28190936	     -7.36749574	      5.63148504	     -1.38715992	      3.19248250	     16.33204653	      0.28504799	     18.47799771	     -2.76037439	     -7.36749574	     -1.08571398	      5.48650285	     -5.57376236	     42.94126489	     11.91605939	     71.78484565	    118.07877052	     89.91156740	     36.65663076	     -2.84154704	     64.95845484	    124.77310392	     89.13080134
